<?xml version="1.0" encoding="UTF-8"?>
<svg width="820px" height="566px" viewBox="0 0 820 566" version="1.1" xmlns="http://www.w3.org/2000/svg" xmlns:xlink="http://www.w3.org/1999/xlink">
    <!-- Generator: Sketch 56.3 (81716) - https://sketch.com -->
    <title>teamwork_white_13</title>
    <desc>Created with Sketch.</desc>
    <g id="White" stroke="none" stroke-width="1" fill="none" fill-rule="evenodd">
        <g id="White-13" transform="translate(-390.000000, -317.000000)">
            <g id="teamwork_white_13" transform="translate(390.000000, 317.000000)">
                <path d="M714.92,407.18 C714.92,407.18 716.06,371.92 714.92,319.96 C713.78,268 771.86,220.68 819.84,244.35 C819.84,244.35 789.04,244.73 767.12,263.77 C745.2,282.81 732.78,294 731,326.62 C729.22,359.24 722.68,407.18 722.68,407.18 L714.92,407.18 Z" id="Path" fill="#00B98F"></path>
                <path d="M693.81,407.08 C693.81,407.08 690,304 677.63,263.77 C665.26,223.54 681.84,133.54 681.84,133.54 C681.84,133.54 682.43,203.09 692.5,237.33 C702.57,271.57 719.8,315.8 716.5,355.88 C713.2,395.96 704.71,407.18 704.71,407.18 L693.81,407.08 Z" id="Path" fill="#00B98F"></path>
                <path d="M702.33,271.07 L676.68,262.61 C676.79,263 676.9,263.39 677.02,263.77 C689.4,304 693.2,407.08 693.2,407.08 L704.12,407.18 C704.12,407.18 712.63,395.96 715.91,355.88 C718.19,328 710.57,298.19 702.33,271.07 Z" id="Path" fill="#068E6A"></path>
                <path d="M695,407.18 C695,407.18 711.3,355.76 682.89,273.84 C654.48,191.92 619.35,173.22 619.35,173.22 C619.35,173.22 651.02,242.22 664.28,296.22 C677.54,350.22 677.69,407.22 677.69,407.22 L695,407.18 Z" id="Path" fill="#00C99C"></path>
                <path d="M733.41,268.87 C721.76,283.26 714.54,301.31 714.94,319.96 C716.06,371.96 714.94,407.18 714.94,407.18 L722.7,407.18 C722.7,407.18 729.25,359.23 731.02,326.62 C732.3,303.18 739.08,290.81 750.93,278.62 L733.41,268.87 Z" id="Path" fill="#068E6A"></path>
                <path d="M702.66,407.18 C702.66,407.18 711.26,357.72 701.77,287.71 C692.28,217.7 782.51,156.05 782.51,156.05 C782.51,156.05 735.17,211.57 726.51,256.6 C717.85,301.63 724.76,357.31 719.33,385.28 C715.99,402.51 715.7,407.18 715.7,407.18 L702.66,407.18 Z" id="Path" fill="#00C99C"></path>
                <path d="M722.68,407.18 C722.68,407.18 727.45,376.25 726.86,330.42 C726.27,284.59 755.38,246.21 726.86,178.32 C698.34,110.43 678.24,112.21 678.24,112.21 C678.24,112.21 712.01,109.21 735.7,151.9 C759.39,194.59 764.3,249.46 748.7,302.12 C733.1,354.78 734.05,407.18 734.05,407.18 L722.68,407.18 Z" id="Path" fill="#00C99C"></path>
                <path d="M695,407.18 C695,407.18 707.89,366.51 690.77,299.9 L663.34,292.52 C663.66,293.76 663.98,295 664.28,296.23 C677.53,350.23 677.69,407.23 677.69,407.23 L695,407.18 Z" id="Path" fill="#00B98F"></path>
                <path d="M704.47,310.79 C709.53,368.34 702.79,407.18 702.79,407.18 L715.88,407.18 C715.88,407.18 716.17,402.51 719.51,385.28 C723.02,367.19 721.39,337.5 722.13,306.6 L704.47,310.79 Z" id="Path" fill="#00B98F"></path>
                <path d="M726.9,334.12 C727.2,377.91 722.68,407.18 722.68,407.18 L734.12,407.18 C734.19007,385.488832 736.036239,363.839825 739.64,342.45 L726.9,334.12 Z" id="Path" fill="#00B98F"></path>
                <path d="M673.25,406.18 C657.94,424.25 647.91,454.35 647.91,488.42 C647.91,519.42 656.18,547.05 669.17,565.42 L744.39,565.42 C757.39,547.07 765.65,519.42 765.65,488.42 C765.65,454.35 755.65,424.25 740.32,406.18 L673.25,406.18 Z" id="Path" fill="#FF9398"></path>
                <path d="M718,406.18 L673.24,406.18 C657.94,424.25 647.91,454.35 647.91,488.42 C647.91,519.42 656.18,547.05 669.17,565.42 L718,565.42 L718,406.18 Z" id="Path" fill="#F4828B"></path>
                <path d="M559.32,526.1 L555.61,565.4 L502,565.4 C502,559.600192 505.772541,554.474622 511.31,552.75 L537.74,544.51 L540.74,526.1 L559.32,526.1 Z" id="Path" fill="#0CBFD1"></path>
                <path d="M628.71,523.63 L636.45,565.4 L581.37,565.4 C581.378726,559.706824 585.090854,554.681672 590.53,553 L613.53,545.8 L611.36,526.15 L628.71,523.63 Z" id="Path" fill="#0CBFD1"></path>
                <path d="M539.74,347.26 L534.06,403.88 L539.74,528 C539.74,528 550.22,532.09 556.05,530.2 L561.88,528.31 L565.71,408.73 L587,345.4 L539.74,347.26 Z" id="Path" fill="#60D6E6"></path>
                <path d="M573.7,353.28 L579.52,409.89 L610,530.3 C610,530.3 621.09,532.2 626.42,529.18 L631.75,526.18 L611.48,408.25 L619.6,342 L573.7,353.28 Z" id="Path" fill="#60D6E6"></path>
                <path d="M546,135.87 L528.06,207.5 L479.72,228.13 C479.72,228.13 481.04,235.89 485.06,238.42 C485.06,238.42 537.81,221.63 545.97,216.99 C554.13,212.35 546,135.87 546,135.87 Z" id="Path" fill="#F89900"></path>
                <path d="M587,119 L624.1,133.42 L627.1,268.52 L536.16,261.74 L545.55,138.74 C546.104693,131.702119 550.502114,125.5465 556.98,122.74 L563.33,119.99 L587,119 Z" id="Path" fill="#F9C200"></path>
                <path d="M398.49,530.51 L399.36,565.4 L349.23,565.4 C349.230884,561.479958 351.637006,557.962097 355.29,556.54 L383,545.75 L381,531.47 L398.49,530.51 Z" id="Path" fill="#1A2249"></path>
                <path d="M431,526.1 L431,565.4 L380.86,565.4 C380.860884,561.479958 383.267006,557.962097 386.92,556.54 L414.59,545.75 L414,528 L431,526.1 Z" id="Path" fill="#303D72"></path>
                <path d="M440.89,287.23 C440.89,287.23 430.23,385.62 425.6,403.57 L433.25,528 C433.25,528 421.84,532.95 413.95,528 C413.95,528 393.44,422.34 393.83,408.22 C394.22,394.1 402.83,296.45 402.83,296.45 L440.89,287.23 Z" id="Path" fill="#303D72"></path>
                <path d="M385.36,289.27 C385.36,289.27 383.94,388.27 381.01,406.54 L400.25,529.67 C400.25,529.67 389.36,535.67 381.04,531.47 C381.04,531.47 350.74,428.19 349.82,414.09 C348.9,399.99 348.34,302 348.34,302 L385.36,289.27 Z" id="Path" fill="#303D72"></path>
                <polygon id="Path" fill="#0CBFD1" points="365.69 127.96 338.63 207.5 299.17 223.79 302.89 236.53 358.58 223.33"></polygon>
                <path d="M408,118.87 L432,126.28 C440.230976,128.82312 445.99048,136.245326 446.41,144.85 L453.92,297.76 L345.59,295 L364.59,131.84 C365.230351,126.348592 369.055451,121.754549 374.34,120.13 L383.87,117.2 L408,118.87 Z" id="Path" fill="#60D6E6"></path>
                <polygon id="Path" fill="#50CAD3" points="353.69 228.36 346.82 287.23 453.69 287.23 449.61 204.26 426.81 156.05 429.85 193.78 382.31 220.59"></polygon>
                <polygon id="Path" fill="#EDB607" points="536.14 252.66 627.08 268.54 624.76 164.3 610.2 156.05 598.88 225.6 538.6 229.49"></polygon>
                <path d="M202.63,526.1 L202.63,565.4 L258,565.4 C257.998629,560.129492 254.405648,555.53823 249.29,554.27 L225.51,548.38 L224.29,528 L202.63,526.1 Z" id="Path" fill="#1A2249"></path>
                <path d="M225.61,309 L235.43,403 L228,529.82 C228,529.82 217.1,540.34 199.67,529.82 L198,408.18 L162.62,337.35 L225.61,309 Z" id="Path" fill="#1A2249"></path>
                <path d="M122.49,281.35 C122.49,281.35 116.77,333.8 119.24,370.93 C121.71,408.06 124.5,413.16 124.5,413.16 L112.9,531.05 C112.9,531.05 123.11,536.16 130.07,534.77 L137.07,533.38 L161.66,411.77 L183.94,288.31 L122.49,281.35 Z" id="Path" fill="#303D72"></path>
                <path d="M160,285.58 L122.65,281.35 C122.65,281.35 116.94,333.8 119.41,370.93 C121.88,408.06 124.67,413.16 124.67,413.16 L124.11,418.92 L161.33,414 L161.78,411.77 L181.56,302.16 L160,285.58 Z" id="Path" fill="#27345E"></path>
                <path d="M200.68,109 L231.52,121.59 L242.24,287.81 C242.24,287.81 155.6,313.81 112.9,281.62 L128.7,137.14 C129.639502,128.594057 135.326372,121.312232 143.39,118.33 L172.16,109.33 L200.68,109 Z" id="Path" fill="#F0F1F4"></path>
                <path d="M242.24,287.85 L238.24,226.27 L157.74,226.27 L150.65,167.27 L125.55,166 L112.9,281.66 C155.6,313.84 242.24,287.85 242.24,287.85 Z" id="Path" fill="#E2E2E2"></path>
                <polygon id="Path" fill="#FF9398" points="660.76 394.06 134.46 394.06 134.46 236.53 278.04 236.53 660.76 236.53"></polygon>
                <polygon id="Path" fill="#F4828B" points="278.04 236.53 349.23 394.06 134.46 394.06 134.46 236.53"></polygon>
                <path d="M169.3,363.35 L169.3,267.28 L170.03,267.67 L256.03,313.18 L169.3,363.35 Z M170.3,268.94 L170.3,361.62 L254,313.22 L170.3,268.94 Z" id="Shape" fill="#FFFFFF" fill-rule="nonzero"></path>
                <path d="M446.18,363 L350.81,363 L350.81,267.61 L446.18,267.61 L446.18,363 Z M351.81,362 L445.18,362 L445.18,268.61 L351.81,268.61 L351.81,362 Z" id="Shape" fill="#FFFFFF" fill-rule="nonzero"></path>
                <path d="M579.89,363 C560.600286,363 543.210149,351.379622 535.829229,333.557862 C528.44831,315.736103 532.530297,295.222999 546.171615,281.584542 C559.812933,267.946084 580.326892,263.868399 598.147103,271.253056 C615.967314,278.637713 627.584045,296.030286 627.580001,315.32 C627.546931,341.643131 606.213137,362.972451 579.89,363 Z M579.89,268.63 C561.005658,268.63 543.98079,280.005653 536.754065,297.452511 C529.52734,314.899368 533.521938,334.981569 546.875184,348.334816 C560.228431,361.688062 580.310632,365.68266 597.757489,358.455935 C615.204347,351.22921 626.58,334.204342 626.58,315.32 C626.568974,289.535156 605.674837,268.632069 579.89,268.61 L579.89,268.63 Z" id="Shape" fill="#FFFFFF" fill-rule="nonzero"></path>
                <path d="M172.16,73 L172.16,109.39 C172.16,109.39 178.27,114.58 189.02,113.96 C198.96,113.38 200.55,109.78 200.55,109.78 L204.66,90.91 L172.16,73" id="Path" fill="#FBAD83"></path>
                <path d="M201.24,106.58 C197.26499,104.953256 193.556938,102.738539 190.24,100.01 C185.24143,96.149227 181.503151,90.8898799 179.5,84.9 L201.31,89.05 L204.66,90.9 L201.24,106.58" id="Path" fill="#E68D5C"></path>
                <rect id="Rectangle" fill="#1A2249" x="210.18" y="51.82" width="18.47" height="1"></rect>
                <path d="M223.14,26.31 C223.14,26.31 226.28,34.06 226.28,40.84 C226.28,46.3 224.08,56.63 224.08,56.63 L211.51,24.54 L223.14,26.31 Z" id="Path" fill="#1A2249"></path>
                <path d="M222.38,87.75 C212.44,108.65 187.78,96.3 177.22,85.75 C166.66,75.2 168.12,34.93 171.04,27.3 C173.96,19.67 198.37,13.48 211.25,18.4 C224.13,23.32 232.32,66.83 222.38,87.74" id="Path" fill="#FBAD83"></path>
                <path d="M226.27,73 C225.771392,78.0867918 224.457956,83.0602934 222.38,87.73 C218.43,96.04 212.15,99.09 205.38,99.1 L205.38,99.1 C212.18,99.1 218.46,96.04 222.38,87.73 C224.457965,83.0596652 225.774634,78.0867052 226.28,73 L226.28,73" id="Path" fill="#DCDDE3"></path>
                <path d="M180.26,56.63 L169.14,56.63 C169.82,68.63 172.14,80.63 177.23,85.76 C183.59,92.11 195.06,99.12 205.36,99.12 C212.15,99.12 218.43,96.06 222.36,87.75 C224.44691,83.0751863 225.767154,78.0947249 226.27,73 C224.4,71.73 222.7,71.17 218.92,71.17 C218.24,71.17 217.5,71.17 216.68,71.17 C207.82,71.55 200.8,77.96 195.53,77.96 C195.002041,77.9633232 194.476449,77.8892012 193.97,77.74 C187.64,75.89 180.26,56.56 180.26,56.56" id="Path" fill="#D8987A"></path>
                <path d="M172.47,59.18 C176.071988,58.8326643 179.380031,57.0422159 181.640612,54.2164895 C183.901193,51.3907632 184.921816,47.7703786 184.47,44.18 C183.9,39.64 182.57,38.18 183.75,33.9 C186.09,25.35 196.35,26.15 203.27,29.33 C210.19,32.51 217.74,32.52 223.69,28.02 C228.08453,24.6013185 229.185409,18.4148115 226.24,13.69 C222.42,7.48 208.71,0 208.71,0 C208.71,0 210.37,3.74 209.82,5.68 C209.27,7.62 172.82,-3.32 165.37,12.88 C157.92,29.08 167.86,59.61 167.86,59.61 L172.47,59.18 Z" id="Path" fill="#1A2249"></path>
                <path d="M166.06,59.4 C166.06,64.79 173.23,69.57 177.63,69.57 C182.03,69.57 182.000003,64.79 182.000003,59.4 C182.000003,54.01 178.43,49.64 174,49.64 C169.57,49.64 166.06,54 166.06,59.4 Z" id="Path" fill="#FBAD83"></path>
                <path d="M169.35,58.91 C168.84,61.33 171.59,64.15 173.56,64.57 C175.53,64.99 171.3,61.69 171.81,59.27 C172.32,56.85 175.81,55.72 173.81,55.27 C171.81,54.82 169.86,56.5 169.35,58.91 Z" id="Path" fill="#E68D5C"></path>
                <path d="M221.79,63.77 C217.79,63.77 214.44,59.51 214.44,54.27 C214.44,49.03 217.74,44.78 221.79,44.78 C225.84,44.78 229.15,49.04 229.15,54.27 C229.15,59.5 225.85,63.77 221.79,63.77 Z M221.79,45.77 C218.29,45.77 215.44,49.58 215.44,54.26 C215.44,58.94 218.29,62.76 221.79,62.76 C225.29,62.76 228.15,58.95 228.15,54.26 C228.15,49.57 225.3,45.78 221.79,45.78 L221.79,45.77 Z" id="Shape" fill="#1A2249" fill-rule="nonzero"></path>
                <path d="M204.66,63.77 C200.6,63.77 197.31,59.51 197.31,54.27 C197.31,49.03 200.6,44.78 204.66,44.78 C208.72,44.78 212,49 212,54.27 C212,59.54 208.71,63.77 204.66,63.77 Z M204.66,45.77 C201.16,45.77 198.31,49.58 198.31,54.26 C198.31,58.94 201.16,62.76 204.66,62.76 C208.16,62.76 211,59 211,54.27 C211,49.54 208.16,45.78 204.66,45.78 L204.66,45.77 Z" id="Shape" fill="#1A2249" fill-rule="nonzero"></path>
                <rect id="Rectangle" fill="#1A2249" x="180.91" y="51.82" width="17.06" height="1"></rect>
                <rect id="Rectangle" fill="#1A2249" x="211.51" y="51.82" width="3.43" height="1"></rect>
                <path d="M218.64,77.87 L201.71,77.87 C201.71,77.87 205.14,85.2 210.85,85.41 C216.56,85.62 218.64,77.87 218.64,77.87 Z" id="Path" fill="#FFFFFF"></path>
                <path d="M225.6,78.19 L199.6,78.19 C199.6,78.19 200,72.78 204.48,70.67 C208.96,68.56 213.81,71.21 215.34,71.12 C216.87,71.03 221.05,68.31 223.44,69.52 C225.83,70.73 225.6,78.19 225.6,78.19 Z" id="Path" fill="#1A2249"></path>
                <path d="M123.73,305.25 C123.73,305.25 127.21,329.62 128.6,333.8 C129.99,337.98 134.6,341.45 140.21,341.45 C145.82,341.45 146.94,327.3 144.85,317.55 C142.76,307.8 143.92,305.25 143.92,305.25 C143.92,305.25 148.33,311.75 151.11,313.61 C153.89,315.47 157.77,313.72 157.77,313.72 C157.77,313.72 150.65,302 146.24,298.72 C141.83,295.44 135.33,295 135.33,295 L123.73,305.25 Z" id="Path" fill="#FBAD83"></path>
                <path d="M131.82,127.94 C131.82,127.94 84.43,203.68 79.48,216.06 C74.53,228.44 120.48,307.8 120.48,307.8 C120.48,307.8 126.79,312.46 134.17,303.16 C138.17,298.16 138.89,294.65 138.89,294.65 L106.09,219.26 C106.09,219.26 151.89,179.55 153.09,158.51 C154.29,137.47 131.82,127.94 131.82,127.94 Z" id="Path" fill="#F0F1F4"></path>
                <path d="M271.79,227.82 C271.79,227.82 273.49,244.14 272.72,250.48 C271.95,256.82 266.72,261.7 261.27,260.77 C255.82,259.84 258.18,236.54 258.18,236.54 L251.18,236.54 C250.901299,234.506033 251.881663,232.505774 253.66,231.48 C255.741547,230.057537 257.570173,228.296514 259.07,226.27 L271.79,227.82 Z" id="Path" fill="#FBAD83"></path>
                <path d="M231.52,121.63 C231.52,121.63 284.79,145.36 292.68,154.17 C300.57,162.98 273.18,229.83 273.18,229.83 C273.18,229.83 266.68,233.54 260.65,229.83 L257.17,227.51 L270.71,166.86 C270.71,166.86 232.49,160.86 221.2,153.56 C209.91,146.26 231.52,121.63 231.52,121.63 Z" id="Path" fill="#F0F1F4"></path>
                <path d="M134.46,529.82 L131.46,548.07 L151.65,554.51 C156.406607,556.00636 159.644236,560.413581 159.65,565.4 L109.5,565.4 L114.22,528 L134.46,529.82 Z" id="Path" fill="#303D72"></path>
                <rect id="Rectangle" fill="#303D72" x="0" y="564.9" width="796.98" height="1"></rect>
                <path d="M408,118.87 C408,118.87 401.49,130.71 391.5,130.52 C381.51,130.33 383.88,117.24 383.88,117.24 L408,118.87 Z" id="Path" fill="#FFFFFF"></path>
                <path d="M365.87,57.68 C365.87,57.68 360.87,98.08 362.87,105.99 C364.87,113.9 384.82,112.28 394.8,111.48 C404.78,110.68 410.04,112.01 414.39,109.59 C418.74,107.17 410.77,81.89 410.77,81.89 L365.87,57.68 Z" id="Path" fill="#EDB607"></path>
                <path d="M376.07,113.790054 C369.421637,113.600298 364.130535,108.156069 364.130535,101.505 C364.130535,94.8539306 369.421637,89.4097018 376.07,89.22 C376.346142,89.22 376.57,89.4438576 376.57,89.72 C376.57,89.9961424 376.346142,90.22 376.07,90.22 C370.140064,90.2517132 365.249109,94.8733166 364.881899,100.791957 C364.51469,106.710597 368.796858,111.901328 374.677396,112.665798 C380.557934,113.430268 386.024932,109.506928 387.1832,103.691126 C388.341467,97.8753232 384.794726,92.1568193 379.07,90.61 C378.805884,90.5369355 378.649792,90.2648896 378.72,90 C378.750129,89.8700253 378.832995,89.7584549 378.94872,89.6920554 C379.064445,89.6256558 379.202585,89.6104189 379.33,89.65 C385.287293,91.2492957 389.133788,97.019604 388.318239,103.133684 C387.502691,109.247764 382.278206,113.808107 376.11,113.790054 L376.07,113.790054 Z" id="Path" fill="#FFFFFF"></path>
                <path d="M382,100.8 L383.92,117.24 C383.92,117.24 386.17,121.04 398.08,121.04 C401.537159,121.108581 404.962213,120.365345 408.08,118.87 L408.08,89.87 L382,100.8 Z" id="Path" fill="#FBAD83"></path>
                <path d="M382,100.8 L383.32,112.11 C385.49566,112.267271 387.682618,112.102154 389.81,111.62 C392.62,110.98 400.63,102.69 405.7,90.84 L382,100.8 Z" id="Path" fill="#E68D5C"></path>
                <path d="M366.65,48.53 C366.65,48.53 363.87,76.08 367.75,89.42 C371.63,102.76 383.7,108.42 394.36,105.96 C398.36,105.05 412.65,88.96 414.46,69.03 C416.27,49.1 414.54,43.13 411.3,38.92 C408.06,34.71 378.65,29.47 373.3,34.08 C367.95,38.69 366.65,48.53 366.65,48.53 Z" id="Path" fill="#FBAD83"></path>
                <path d="M376.07,47.53 C376.07,47.53 367.07,60.26 364.8,60.64 C362.53,61.02 362.27,52.55 362.8,44.93 C363.69,32.93 372.05,27.6 372.05,27.6 L376.07,47.53 Z" id="Path" fill="#F9C200"></path>
                <path d="M367.5,37.45 C367.5,37.45 370.19,52.29 375.84,61.17 C381.49,70.05 402.74,66.82 406.5,67.09 C410.26,67.36 405.97,97.22 403.28,107.17 C400.59,117.12 419.95,114.17 426.14,112.82 C432.33,111.47 435.56,59.03 427.49,38.71 C419.42,18.39 386.06,19.19 376.91,23.64 C371.545293,26.2477505 367.964306,31.5031638 367.5,37.45 Z" id="Path" fill="#F9C200"></path>
                <path d="M403.28,107.17 C400.59,117.17 419.96,114.17 426.14,112.82 C430.32,111.91 433.14,87.72 432.06,65.82 L408,72.38 C408.15,81.46 405.27,99.79 403.28,107.17 Z" id="Path" fill="#EDB607"></path>
                <path d="M415.69,83.69 C415.69,87.6 410.49,91.08 407.29,91.08 C404.09,91.08 404.119995,87.6 404.119995,83.69 C404.119995,79.78 406.71,76.6 409.91,76.6 C413.11,76.6 415.69,79.77 415.69,83.69 Z" id="Path" fill="#FBAD83"></path>
                <path d="M413.18,82 C412.81,80.08 409.92,78.87 408.36,79.17 C406.8,79.47 410.9,80.57 411.27,82.49 C411.64,84.41 409.45,86.29 411,86 C412.55,85.71 413.55,83.88 413.18,82 Z" id="Path" fill="#E68D5C"></path>
                <path d="M390.74,74.7000272 C390.544987,74.7014376 390.35381,74.6458223 390.19,74.54 L383.93,70.48 L379.45,71.65 C378.917196,71.7897247 378.371722,71.4722768 378.23,70.94 C378.159859,70.6826994 378.195401,70.408041 378.328726,70.1770696 C378.462051,69.9460982 378.682112,69.777951 378.94,69.71 L383.85,68.43 C384.123063,68.358482 384.413633,68.4056996 384.65,68.56 L391.28,72.86 C391.652013,73.1002935 391.821663,73.5566564 391.69695,73.9816049 C391.572237,74.4065535 391.182869,74.6988568 390.74,74.7000272 L390.74,74.7000272 Z" id="Path" fill="#F76A00"></path>
                <path d="M363.57,72.94 C363.230008,72.9394336 362.913596,72.7661601 362.73,72.48 C362.426783,72.0237025 362.547173,71.408376 363,71.1 L366.91,68.56 C367.146367,68.4056996 367.436937,68.358482 367.71,68.43 L372.62,69.71 C372.877888,69.777951 373.097949,69.9460982 373.231274,70.1770696 C373.364599,70.408041 373.400141,70.6826994 373.33,70.94 C373.188278,71.4722768 372.642804,71.7897247 372.11,71.65 L367.63,70.48 L364.09,72.77 C363.935838,72.8739007 363.755766,72.9327706 363.57,72.94 L363.57,72.94 Z" id="Path" fill="#F76A00"></path>
                <path d="M408,113.79 C403.527418,113.917619 399.338868,111.604424 397.064923,107.750925 C394.790979,103.897427 394.790979,99.112573 397.064923,95.2590748 C399.338868,91.4055765 403.527418,89.0923811 408,89.22 C408.276142,89.22 408.5,89.4438576 408.5,89.72 C408.5,89.9961424 408.276142,90.22 408,90.22 C402.075591,90.2523963 397.189652,94.8700946 396.823139,100.783245 C396.456627,106.696394 400.734925,111.882116 406.609986,112.645874 C412.485048,113.409632 417.947023,109.490146 419.104561,103.679829 C420.262099,97.8695128 416.719209,92.1560667 411,90.61 C410.723858,90.538203 410.558203,90.2561424 410.63,89.98 C410.701797,89.7038576 410.983858,89.538203 411.26,89.61 C417.26979,91.1799533 421.163429,96.987296 420.333495,103.143068 C419.50356,109.298841 414.210982,113.867678 408,113.79 L408,113.79 Z" id="Path" fill="#FFFFFF"></path>
                <path d="M299.7,225.6 C295.902085,227.36825 292.227156,229.389461 288.7,231.65 C284.55,234.52 281.08,246.19 280.89,248.76 C280.7,251.33 283.06,255.19 286.42,256.08 C289.78,256.97 295.52,245.2 296.31,243.08 C296.934639,240.942946 297.366368,238.754179 297.6,236.54 L300.76,236.54 L302.58,235.54 L299.7,225.6 Z" id="Path" fill="#FBAD83"></path>
                <path d="M393.08,225.6 C393.08,225.6 381.33,227.1 376.38,231.48 C371.43,235.86 368.79,249.48 370.96,252.57 C373.13,255.66 379.32,253.35 383.03,251.64 C386.74,249.93 389.37,236.54 389.37,236.54 L399.74,234.32 L393.08,225.6 Z" id="Path" fill="#FBAD83"></path>
                <path d="M443.92,136.07 C443.92,136.07 471.37,191.77 472.3,210.8 C473.23,229.83 395,236.54 395,236.54 C395,236.54 389.7,230.29 390.73,224.03 L448.38,202.45 C448.38,202.45 427.03,163.92 424.48,148.61 C421.93,133.3 443.92,136.07 443.92,136.07 Z" id="Path" fill="#60D6E6"></path>
                <polygon id="Path" fill="#1A2249" points="568.61 107.73 539.74 112.25 539.74 67.21"></polygon>
                <path d="M587,83.79 L587,119 C587,119 581.89,124 572.89,123.43 C566.27,122.98 563.34,119.91 563.34,119.91 L559.8,101.11 L587,83.79 Z" id="Path" fill="#A55B3A"></path>
                <path d="M587,89.78 C586.751091,90.4007179 586.456968,91.0023335 586.12,91.58 C581.47,99.32 572.12,110.71 562.21,113.92 L559.8,101.13 L587,83.79 L587,89.78 Z" id="Path" fill="#8E4A2F"></path>
                <path d="M538.34,98.08 C547.96,118.32 572.2,102.08 582.42,91.83 C592.64,81.58 590.88,46.94 588.05,39.56 C585.22,32.18 561.59,26.17 549.12,30.94 C536.65,35.71 528.72,77.83 538.34,98.08 Z" id="Path" fill="#A55B3A"></path>
                <path d="M573.58,116 L598,107.73 C598,107.73 601.58,51.66 593.77,37.61 C585.96,23.56 565.32,18.83 552,23.84 C532.63,31.13 532.92,56.84 532.63,59.12 C537.123209,58.2951344 541.726268,58.264673 546.23,59.03 C551.225961,59.9358927 556.329862,60.0842228 561.37,59.47 L570.87,58.33 L573.58,116 Z" id="Path" fill="#1A2249"></path>
                <path d="M585.84,78.83 C585.84,82.64 580.78,86.01 577.68,86.01 C574.58,86.01 574.609995,82.64 574.609995,78.83 C574.609995,75.02 577.12,72 580.22,72 C583.32,72 585.84,75 585.84,78.83 Z" id="Path" fill="#A55B3A"></path>
                <circle id="Oval" fill="#FFFFFF" cx="576.85" cy="88.68" r="5.45"></circle>
                <path d="M536.14,84.35 C531.41,84.35 527.56,79.77 527.56,74.13 L527.56,73.63 L528.07,73.63 L544.700078,73.63 L544.700078,74.17 C544.72,79.77 540.87,84.35 536.14,84.35 Z M528.58,74.59 C528.79,79.48 532.1,83.35 536.14,83.35 C540.18,83.35 543.51,79.46 543.71,74.59 L528.58,74.59 Z" id="Shape" fill="#1A2249" fill-rule="nonzero"></path>
                <path d="M556.05,84.35 C551.32,84.35 547.47,79.77 547.47,74.13 L547.47,73.63 L547.98,73.63 L564.62,73.63 L564.62,74.13 C564.62,79.77 560.78,84.35 556.05,84.35 Z M548.49,74.59 C548.7,79.48 552.01,83.35 556.05,83.35 C560.09,83.35 563.42,79.46 563.62,74.59 L548.49,74.59 Z" id="Shape" fill="#1A2249" fill-rule="nonzero"></path>
                <rect id="Rectangle" fill="#1A2249" x="543.39" y="73.59" width="32.55" height="1"></rect>
                <path d="M480,229.49 C476.542181,230.202488 473.134857,231.141172 469.8,232.3 C465.16,234.01 455.72,246.07 456.03,248.08 C456.34,250.09 459.59,254.08 465.03,252.08 C470.47,250.08 479.72,236.51 479.72,236.51 L483.08,236.51 C483.08,236.51 481.39,234.56 480,229.49 Z" id="Path" fill="#A55B3A"></path>
                <path d="M672.8,254.74 C672.8,254.74 675.28,264.79 672.8,273.92 C670.32,283.05 662.44,292.92 658.57,291.25 C654.7,289.58 660.76,269.75 660.76,269.75 L661.67,258.45 L672.8,254.74 Z" id="Path" fill="#A55B3A"></path>
                <path d="M601.79,152.55 L640.79,187.55 L660.79,260.55 C660.79,260.55 661.69,263.11 669.12,259.86 L675.34,257.14 C675.34,257.14 668.66,191.24 659.34,172.67 C650.02,154.1 624.07,133.37 624.07,133.37 L601.79,152.55 Z" id="Path" fill="#F9C200"></path>
                <polygon id="Path" fill="#50CAD3" points="613.22 394.06 611.48 408.25 582.06 419.94 579.52 409.89 577.89 394.06"></polygon>
                <polygon id="Path" fill="#50CAD3" points="570.63 394.06 565.71 408.69 565.38 418.79 535.31 431.05 534.06 403.88 535.05 394.06"></polygon>
                <polygon id="Path" fill="#27345E" points="427.48 394.06 425.6 403.57 426.28 414.67 395.29 422.7 393.83 411.12 394.71 394.06"></polygon>
                <polygon id="Path" fill="#27345E" points="382.19 394.06 381.01 406.54 382.83 418.16 352.38 427.4 349.82 414.09 349.23 394.06"></polygon>
            </g>
        </g>
    </g>
</svg>