<svg xmlns="http://www.w3.org/2000/svg" xmlns:xlink="http://www.w3.org/1999/xlink" viewBox="0 0 586.51 606.12"><defs><style>.cls-1{fill:none;}.cls-2{fill:#222747;fill-rule:evenodd;}.cls-3{fill:#303d72;}.cls-4{clip-path:url(#clip-path);}.cls-5{fill:#27345e;}.cls-6{fill:#f89900;}.cls-7{fill:#1a2249;}.cls-8{fill:#00c99c;}.cls-9{clip-path:url(#clip-path-2);}.cls-10{fill:#08bf8b;}.cls-11{fill:#ff9398;}.cls-12{clip-path:url(#clip-path-3);}.cls-13{fill:#f4828b;}.cls-14{clip-path:url(#clip-path-4);}.cls-15{fill:#f9c200;}.cls-16{clip-path:url(#clip-path-5);}.cls-17{fill:#edb607;}.cls-18{fill:#fff;}.cls-19{fill:#a55b3a;}.cls-20{fill:#8e4a2f;}.cls-21{fill:#e2e2e2;}.cls-22{clip-path:url(#clip-path-6);}.cls-23{fill:#f8f8f8;}.cls-24{clip-path:url(#clip-path-7);}.cls-25{fill:#00b98f;}.cls-26{fill:#a9c2dc;}.cls-27{clip-path:url(#clip-path-8);}.cls-28{fill:#60d6e6;}.cls-29{fill:#0cbfd1;}.cls-30{fill:#fbad83;}.cls-31{fill:#e68d5c;}.cls-32{fill:#fbad82;}.cls-33{fill:#50cad3;}</style><clipPath id="clip-path"><path class="cls-1" d="M190.85,216.54s-2.49,17.85-3.76,35,7.66,67.71,7.66,67.71l-14.91,98.59s8.49,3.86,12.4,2.74l3.91-1.12,24.57-100.81,16.19-91.21Z"/></clipPath><clipPath id="clip-path-2"><path class="cls-1" d="M404.5,490.77a38.34,38.34,0,1,0,1.35-54.21A38.36,38.36,0,0,0,404.5,490.77Z"/></clipPath><clipPath id="clip-path-3"><polygon class="cls-1" points="342.48 453.44 401.1 506.89 401.1 604.96 328.07 574.12 342.48 453.44"/></clipPath><clipPath id="clip-path-4"><polygon class="cls-1" points="240.9 453.44 182.28 506.89 182.28 604.96 255.31 574.12 240.9 453.44"/></clipPath><clipPath id="clip-path-5"><path class="cls-1" d="M225.68,79.71l-28.59,9c-2.29.72-6.16,3.73-6.24,6.4l-3.76,125.54A116.79,116.79,0,0,0,280,218.17q-3.63-63.3-7.24-126.61L246.29,80Z"/></clipPath><clipPath id="clip-path-6"><path class="cls-1" d="M244.79,196.82c-17.16,42.78-32.46,97.72-32.46,157.64,0,95.64,17.45,178.58,43,219.66h72.77c25.53-41.08,43-124,43-219.66,0-59.92-15.3-114.86-32.46-157.64a243.1,243.1,0,0,1-46.9,4.53A243.1,243.1,0,0,1,244.79,196.82Z"/></clipPath><clipPath id="clip-path-7"><path class="cls-1" d="M247.81,173.62a242.23,242.23,0,0,0,44.32,16,243.33,243.33,0,0,0,46.57,7.21c-7.73-58.39-23.32-98.3-23.32-98.3S282.58,126.08,247.81,173.62Z"/></clipPath><clipPath id="clip-path-8"><path class="cls-1" d="M313.54,259.87a33.78,33.78,0,1,1-33.78-33.78A33.77,33.77,0,0,1,313.54,259.87Z"/></clipPath></defs><title>teamwork_white_15</title><g id="Layer_2" data-name="Layer 2"><g id="Layer_15" data-name="Layer 15"><path class="cls-2" d="M182.28,415.3l-3.61,18.36h32.62a8,8,0,0,0-5.52-7.58l-12.37-4L195,411.53Z"/><path class="cls-3" d="M190.85,216.54s-2.49,17.85-3.76,35,7.66,67.71,7.66,67.71l-14.91,98.59s8.49,3.86,12.4,2.74l3.91-1.12,24.57-100.81,16.19-91.21Z"/><g class="cls-4"><path class="cls-5" d="M236.91,227.46l-45.33-10.75-.79.23c-.17,1.23-.71,5.31-1.37,10.89l30.31,12.62L205.8,297.56l6,57.53,8.88-36.42Z"/></g><path class="cls-6" d="M272.74,91.56l14.49,56.11,47.94,7.45a69.44,69.44,0,0,1,0,11.45l-.58,4.32s-47.5-3-57.69-6.51S259,108.23,259,108.23Z"/><rect class="cls-7" x="60.74" y="491.13" width="227.27" height="1" transform="translate(-328.83 629.07) rotate(-85.75)"/><rect class="cls-7" x="140.63" y="491.13" width="227.27" height="1" transform="translate(-254.87 708.74) rotate(-85.75)"/><rect class="cls-7" x="162.01" y="554.12" width="87.59" height="1"/><rect class="cls-7" x="166.68" y="491.13" width="87.59" height="1"/><rect class="cls-7" x="170.89" y="433.16" width="87.59" height="1"/><path class="cls-8" d="M404.5,490.77a38.34,38.34,0,1,0,1.35-54.21A38.36,38.36,0,0,0,404.5,490.77Z"/><g class="cls-9"><path class="cls-10" d="M404.47,490.77a38.35,38.35,0,0,0,64.75-36.64L394,466.45A38.18,38.18,0,0,0,404.47,490.77Z"/></g><rect class="cls-3" x="431.32" y="443.51" width="1" height="161.49" transform="translate(-16.43 13.97) rotate(-1.82)"/><rect class="cls-3" x="426.31" y="461.19" width="30.46" height="1" transform="translate(-195.17 409.55) rotate(-41.6)"/><rect class="cls-3" x="423.07" y="449.99" width="1" height="13.51" transform="translate(-164.1 663.33) rotate(-66.53)"/><polygon class="cls-11" points="342.48 453.44 401.1 506.89 401.1 604.96 328.07 574.12 342.48 453.44"/><g class="cls-12"><polygon class="cls-13" points="373.27 481.51 354.5 585.35 328.07 574.12 342.48 453.44 373.27 481.51"/></g><polygon class="cls-11" points="240.9 453.44 182.28 506.89 182.28 604.96 255.31 574.12 240.9 453.44"/><g class="cls-14"><polygon class="cls-13" points="240.9 453.44 205.8 485.56 217.5 590.06 255.31 574.12 240.9 453.44"/></g><path class="cls-15" d="M225.68,79.71l-28.59,9c-2.29.72-6.16,3.73-6.24,6.4l-3.76,125.54A116.79,116.79,0,0,0,280,218.17q-3.63-63.3-7.24-126.61L246.29,80Z"/><g class="cls-16"><polygon class="cls-17" points="190.11 119.92 189.43 142.64 198.25 118.39 190.11 119.92"/><path class="cls-17" d="M280,218.18q-1.08-18.81-2.15-37.61l-36.47,4.83-8.64,31.14-16.8-2,8.23-53.73-34.93-11.1-2.13,70.87A117.17,117.17,0,0,0,225.74,229,118.38,118.38,0,0,0,280,218.18Z"/></g><path class="cls-18" d="M224.7,79.71s2.71,11.37,12.76,10.51,10-9.67,10-9.67Z"/><path class="cls-19" d="M224.7,50V80s5,3.94,13.76,3.43c8.12-.47,9-2.89,9-2.89l3.74-15.93Z"/><path class="cls-20" d="M248.44,77.42c-4.36,1-9.41-1.74-13.18-4.74-6.95-5.52-9.76-16.48-9.76-16.48l23,6.91,2.74,1.51Z"/><path class="cls-7" d="M265.22,14.26s3.93,1.47,3.66,10.86A108.3,108.3,0,0,1,267.08,38L256.82,11.81Z"/><path class="cls-19" d="M265.7,63.4c-8.12,17.07-28.25,7-36.87-1.61s-7.43-41.49-5-47.72S246.1,2.79,256.61,6.81,273.81,46.34,265.7,63.4Z"/><path class="cls-7" d="M235.1,34.89s2.24,18.89,7.41,20.4c4.42,1.3,10.56-5,18.53-5.36,4.43-.18,6,.24,7.84,1.46a38.93,38.93,0,0,1-3.18,12c-8.11,17.07-28.24,7-36.86-1.61-4.17-4.17-6.05-14-6.6-23.79Z"/><path class="cls-7" d="M231.71,41.67s2.49.24,3.51-1.24-1.9-9.83,1-18.68c2.1-6.33,11.66-10,19.47-8.45s9.79,2.22,10.59-.05S264,5.64,261.27,3.52s-15.43-5.85-26-1.52-12.72,7.2-15.09,14.07-.85,24.07,0,25.17S231.71,41.67,231.71,41.67Z"/><path class="cls-19" d="M219.73,40.26c0,4.4,5.84,8.31,9.43,8.31s3.56-3.91,3.56-8.31-2.91-8-6.5-8S219.73,35.86,219.73,40.26Z"/><path class="cls-7" d="M268.88,51.39s0,20.68-2.44,24.41-10.43,4.54-14,3-9.5-7.16-11-11.91,21.43-11.53,21.43-11.53Z"/><path class="cls-20" d="M222.1,38.21c-.42,2,1.83,4.27,3.44,4.61s-1.85-2.35-1.43-4.32,3.26-2.9,1.65-3.24S222.52,36.24,222.1,38.21Z"/><path class="cls-18" d="M264.7,58.15s-8.58.23-10-.23l-1.43-.45a6.28,6.28,0,0,0,4,5.64c4,1.45,6.16-1.22,6.69-2.7S264.7,58.15,264.7,58.15Z"/><path class="cls-7" d="M269.67,32.22a.86.86,0,0,1-.28,0,11.91,11.91,0,0,0-6.5,0,1,1,0,0,1-.66-1.88,13.62,13.62,0,0,1,7.71,0,1,1,0,0,1,.69,1.23A1,1,0,0,1,269.67,32.22Z"/><path class="cls-7" d="M248.08,34.35a1,1,0,0,1-.75-1.65c.15-.18,3.89-4.38,10.5-2.27a1,1,0,1,1-.61,1.9c-5.31-1.69-8.26,1.55-8.38,1.68A1,1,0,0,1,248.08,34.35Z"/><rect class="cls-7" x="269.3" y="38.23" width="5.3" height="1"/><path class="cls-7" d="M268.35,49.22c-3.73,0-6.76-3.91-6.76-8.71s3-8.71,6.76-8.71,6.75,3.91,6.75,8.71S272.07,49.22,268.35,49.22Zm0-16.42c-3.18,0-5.76,3.46-5.76,7.71s2.58,7.71,5.76,7.71,5.75-3.46,5.75-7.71S271.52,32.8,268.35,32.8Z"/><path class="cls-7" d="M252.71,49.22c-3.72,0-6.75-3.91-6.75-8.71s3-8.71,6.75-8.71,6.76,3.91,6.76,8.71S256.44,49.22,252.71,49.22Zm0-16.42c-3.17,0-5.75,3.46-5.75,7.71s2.58,7.71,5.75,7.71,5.76-3.46,5.76-7.71S255.89,32.8,252.71,32.8Z"/><rect class="cls-7" x="232.72" y="38.23" width="13.89" height="1"/><rect class="cls-7" x="258.97" y="38.23" width="3.13" height="1"/><path class="cls-21" d="M244.79,196.82c-17.16,42.78-32.46,97.72-32.46,157.64,0,95.64,17.45,178.58,43,219.66h72.77c25.53-41.08,43-124,43-219.66,0-59.92-15.3-114.86-32.46-157.64a243.1,243.1,0,0,1-46.9,4.53A243.1,243.1,0,0,1,244.79,196.82Z"/><g class="cls-22"><path class="cls-23" d="M371.58,354.46c0-59.92-15.3-114.86-32.46-157.64a243.1,243.1,0,0,1-46.9,4.53c-3.58,0-7.14-.09-10.67-.24A507.25,507.25,0,0,0,268.35,314c0,106.94,16.77,201.69,42.56,260.12H328.6C354.13,533,371.58,450.1,371.58,354.46Z"/></g><path class="cls-3" d="M247.81,173.62a242.23,242.23,0,0,0,44.32,16,243.33,243.33,0,0,0,46.57,7.21c-7.73-58.39-23.32-98.3-23.32-98.3S282.58,126.08,247.81,173.62Z"/><g class="cls-24"><path class="cls-5" d="M315.65,98.52l-.09.08c-2,1.67-33.8,29-67.48,75a239.87,239.87,0,0,0,34.51,13.25Z"/></g><rect class="cls-11" x="283.98" y="470.96" width="15.41" height="134"/><rect class="cls-13" x="283.98" y="542.68" width="15.41" height="62.27"/><path class="cls-25" d="M414.89,526.24a55.74,55.74,0,1,0,55.74-55.74A55.75,55.75,0,0,0,414.89,526.24Z"/><rect class="cls-3" x="415.52" y="551.89" width="106.53" height="1" transform="translate(-152.32 925.38) rotate(-80.67)"/><path class="cls-3" d="M392.42,578.23,394,606.12H352.59a9.89,9.89,0,0,1,6.87-9.42l17.26-5.57-.58-12.9Z"/><path class="cls-7" d="M439.39,579.53l4.33,19.19-16.84,7.4h-19.4a7.29,7.29,0,0,1,5.12-7l9.63-3,3.37-15.57Z"/><rect class="cls-3" x="468.52" y="531.09" width="45.02" height="1" transform="translate(-178.96 258.07) rotate(-25.06)"/><rect class="cls-3" x="456.07" y="493.56" width="1" height="41" transform="translate(-228.19 575.81) rotate(-53.54)"/><path class="cls-26" d="M325.46,259.87a33.77,33.77,0,1,1-33.77-33.78A33.77,33.77,0,0,1,325.46,259.87Z"/><path class="cls-3" d="M313.54,259.87a33.78,33.78,0,1,1-33.78-33.78A33.77,33.77,0,0,1,313.54,259.87Z"/><g class="cls-27"><path class="cls-5" d="M246,258.51c0,.45,0,.9,0,1.36a33.77,33.77,0,0,0,58.84,22.63Z"/></g><circle class="cls-3" cx="291.69" cy="331" r="7.78"/><circle class="cls-3" cx="291.69" cy="362.13" r="7.78"/><circle class="cls-28" cx="426.35" cy="232.34" r="3.67"/><path class="cls-29" d="M435.31,271.71,384,285.22,360.51,242.1l-9.19,3.54s16.34,46.49,21.19,54.92,64.84-7.19,64.84-7.19Z"/><path class="cls-7" d="M441,391.56,429.5,479.69,441.69,581.6s-4.06,4.63-9.56,3.6a28.67,28.67,0,0,1-9.45-3.6s-13.28-85.9-16.16-101.91-3.75-85.05-3.75-85.05Z"/><path class="cls-7" d="M406.52,243.71c-3.72,0-6.75-3.9-6.75-8.71s3-8.71,6.75-8.71,6.76,3.91,6.76,8.71S410.25,243.71,406.52,243.71Zm0-16.42c-3.17,0-5.75,3.46-5.75,7.71s2.58,7.71,5.75,7.71,5.76-3.45,5.76-7.71S409.7,227.29,406.52,227.29Z"/><path class="cls-7" d="M390.75,245.15c-3.38,0-6.13-3.54-6.13-7.9s2.75-7.89,6.13-7.89,6.13,3.54,6.13,7.89S394.13,245.15,390.75,245.15Zm0-14.79c-2.83,0-5.13,3.09-5.13,6.89s2.3,6.9,5.13,6.9,5.13-3.1,5.13-6.9S393.58,230.36,390.75,230.36Z"/><path class="cls-30" d="M405.52,252.16l.34,12.58s1.44,3,10.47,3.85a10.79,10.79,0,0,0,7.86-2.82L426,245.64Z"/><path class="cls-31" d="M405.31,254.45l.51,8.76a4.25,4.25,0,0,0,2.5-.23c4.31-1.64,3.79-6.48,6.47-15.29Z"/><path class="cls-30" d="M391.19,216.33s-2.11,21,.84,31.11,12.14,14.44,20.24,12.58c3-.7,13.92-12.95,15.29-28.09s.07-19.71-2.4-22.91-24.84-7.19-28.9-3.69S391.19,216.33,391.19,216.33Z"/><path class="cls-7" d="M428.12,205.09s4.37,5.06,4,17.66-3.25,21.91-6.89,25.77-16.21,3.66-20.07,1.56S394.19,239.84,394.58,235c.16-2.07.36-4.77.54-7.18a6.93,6.93,0,0,0-5.32-7.24l-1.54-.37s-1-12.44,5.74-17.61,14.75-5.55,22.79-3.45S428.12,205.09,428.12,205.09Z"/><path class="cls-30" d="M404.56,240.33c0,3-4,5.63-6.39,5.63s-2.41-2.65-2.41-5.63,2-5.39,4.4-5.39S404.56,237.35,404.56,240.33Z"/><path class="cls-31" d="M402.64,239c-.28-1.46-2.47-2.38-3.66-2.15s1.93,1.06,2.21,2.52-1.38,2.92-.19,2.69A2.47,2.47,0,0,0,402.64,239Z"/><path class="cls-7" d="M411.71,214.57a17.79,17.79,0,1,0,17.79-17.79A17.79,17.79,0,0,0,411.71,214.57Z"/><rect class="cls-7" x="385.12" y="235.03" width="12.4" height="1"/><path class="cls-3" d="M440.26,373.31s3.68,9.73-.75,24c-3.16,10.21-20.29,11.23-20.29,11.23l-27.8,77.6L395,581.6s-8.91,5.65-15.09,3.6l-6.17-2.05s-6.65-93-6.18-103.67,12.35-106.17,12.35-106.17Z"/><path class="cls-5" d="M368.92,465.5l21.83-70.44,32.82-12.91-5.8-8.84H379.93S372.13,436,368.92,465.5Z"/><path class="cls-30" d="M300.52,295.45l-5.87-5.29a30.5,30.5,0,0,1-6.87,2.5,29.85,29.85,0,0,1-6.41.75c-.4-4.26-1.78-5.58-2.84-6.32-1.56-1.08-4.59-.53-4.59-.53s2,9,3.41,12.15,13.12,4.15,15,3.89a3.92,3.92,0,0,1,2.81.45Z"/><path class="cls-28" d="M405.86,264.74l-22.13,9L373,375.38s53,20.51,72.52,0L440,279.68a12.41,12.41,0,0,0-7.92-10.86l-7.93-3.05Z"/><path class="cls-32" d="M359.21,242.61s-.39-6.6-3.49-10.58-5.61-4.57-5.61-4.57l2.07,8.64s.49,1.25-1.53,1.36-2.23-3.92-4.67-4.3-2.67,0-2.67,0,2.5,6,4.57,8.21,3.7,4.18,3.7,4.18Z"/><path class="cls-19" d="M246.29,166.8s12.61,6.56,17.3,8.27,8.8-.49,11.65-3.49-5.51-8.63-10-11.77l-4.51-3.14,4.13-5.1s-2.67-1.17-6.68.94a20,20,0,0,1-7.58,2.29Z"/><path class="cls-15" d="M212.85,95.28c7.12,6.12-18.65,48.63-18.65,48.63l58,9.5a10.46,10.46,0,0,1-.66,9.19c-2.78,4.56-4.91,6.19-4.91,6.19s-54.35,2.17-68.09-7.54S189.83,93.17,192.61,91,205.73,89.16,212.85,95.28Z"/><path class="cls-19" d="M337.7,156.7a4.45,4.45,0,0,0-2.75-4.14c-2.46-1-6.1-2-8.71-.61-4.33,2.38-1.82,14.24,1.53,16.89s7.4,1.54,8.79,0C337.55,167.75,337.7,160.71,337.7,156.7Z"/><circle class="cls-8" cx="78.06" cy="476.75" r="78.06"/><rect class="cls-3" x="81.98" y="423.31" width="1" height="182.73" transform="translate(-74.3 17.57) rotate(-8.4)"/><rect class="cls-3" x="70.35" y="475.72" width="52.74" height="1" transform="translate(-333.1 249.52) rotate(-50.71)"/><polygon class="cls-3" points="75.89 470.76 18.18 453.91 18.46 452.95 76.17 469.81 75.89 470.76"/><path class="cls-33" d="M373.15,375.38a163.49,163.49,0,0,0,23.93,6.77l-2.62-95.73-12.31,3.41Z"/><path class="cls-28" d="M383.73,273.7,343.4,314.34,299.75,294a23.12,23.12,0,0,0-4.08,6l-2.05,4.08s43.13,25.55,52.07,28.47,57.08-46,57.08-46Z"/><rect class="cls-3" y="604.46" width="586.51" height="1"/></g></g></svg>